<svg xmlns="http://www.w3.org/2000/svg" width="80" height="30"><path d="M43.799 5.798c.572-.533 2.313-2.156 1.312-4.074-.35-.672-.929-1.174-1.586-1.378a2.21 2.21 0 0 0-1.708.162c-2.03 1.082-3.733 3.226-5.236 5.117l-.457.573a166.178 166.178 0 0 0-5.682 7.484c-.255.357-.51.717-.765 1.078-1.783 2.519-3.627 5.123-5.775 7.32-.551.564-1.073.856-1.207.806-.02-.034-.037-.112-.005-.293.139-.76.551-1.492.951-2.201.097-.172.193-.343.285-.512.334-.618.69-1.24 1.033-1.842.542-.948 1.102-1.929 1.599-2.929.268-.54.551-1.075.834-1.61 1.024-1.939 2.084-3.942 2.456-6.223.185-1.137-.093-2.257-.743-2.996-.873-.992-2.118-1.116-3.698-.37a11.01 11.01 0 0 0-2.34 1.52c-2.1 1.762-3.994 3.825-5.824 5.82-.653.711-1.327 1.447-1.998 2.154-2.869 3.023-5.695 5.894-8.827 9.064-.379.383-.763.465-.934.347-.148-.103-.197-.432.032-.937 1.354-2.991 3.223-5.962 5.711-9.082.814-1.02 1.662-1.895 2.559-2.821.246-.254.495-.51.746-.774.136-.142.275-.285.415-.428.992-1.013 2.019-2.061 2.317-3.542.271-1.342-.57-2.772-1.874-3.188-1.675-.534-2.96 1.063-3.508 1.745-3.268 4.069-7.396 9.536-10.34 15.75-.466.985-.923 2.053-1.118 3.189-.308 1.794.16 4.134 1.9 5.316.075.05.152.1.23.146a3.803 3.803 0 0 0 1.975.567c.774 0 1.57-.245 2.364-.734 2.397-1.476 3.83-3.101 5.49-4.984a95.15 95.15 0 0 1 1.346-1.507c1.066-1.161 2-2.223 2.901-3.25 1.803-2.051 3.506-3.99 5.82-6.19l.029-.027c-.044.245-.191.738-.64 1.687l-.033.069c-.437.95-.945 1.892-1.436 2.802-1.29 2.392-2.625 4.866-2.841 7.775-.116 1.539.435 2.871 1.511 3.656 1.074.784 2.503.898 3.923.316 3.655-1.5 6.06-4.765 8.386-7.922.402-.546.802-1.089 1.207-1.62 3.178-4.174 6.93-8.967 11.243-13.03M73.49 18.321c-.864-.156-1.801.24-2.507 1.06-1.426 1.656-4.299 4.446-7.52 4.52-1.294.032-2.497-.595-3.065-1.594-.42-.737-.46-1.712-.1-2.371.378-.691 1.077-.706 1.818-.721.156-.004.311-.007.464-.017 4.643-.287 9.312-2.578 12.488-6.128 1.466-1.631 5.36-5.964 3.288-9.449-1.033-1.734-3.07-2.43-5.59-1.908C66.9 2.928 62.762 7.829 59.343 12.329l-.427.564c-3.6 4.75-7.68 10.133-13.752 10.98a9.35 9.35 0 0 1-.556.06c-1.104.087-2.269-.31-2.967-1.014a2.394 2.394 0 0 1-.702-1.94c.1-1.213 1.118-1.831 3.108-1.888 1.587-.046 2.895-.284 4.24-.771 2.025-.734 4.029-1.948 5.955-3.607 2.17-1.87 4.5-4.235 5.315-7.596.39-1.603.132-3.049-.725-4.072-.87-1.04-2.268-1.55-3.948-1.44-.688.045-1.44.203-2.365.5-1.594.509-3.06 1.379-4.424 2.226-2.986 1.853-5.619 4.308-7.615 7.1-1.875 2.622-4.81 7.706-3.402 12.299a6.715 6.715 0 0 0 4.21 4.375 8.87 8.87 0 0 0 2.9.473c2.229 0 4.604-.767 6.829-2.245.885-.588 1.738-1.26 2.563-1.909.312-.245.624-.49.93-.726.017-.011.034-.025.073-.056.032-.025.062-.05.089-.074a1.92 1.92 0 0 0 .218-.208c.313-.233.618-.474.909-.72.731 2.655 2.065 4.366 4.07 5.225 4.357 1.865 9.41-.45 12.688-3.24 1.183-1.01 1.955-1.943 2.428-2.94.316-.665.357-1.292.126-1.918-.291-.785-.882-1.313-1.62-1.446zm-6.03-8.604c1.645-1.346 3.508-2.277 5.8-3.26l.112-.05c.321-.15.447-.174.56-.026.03.054.004.292-.084.462-2.19 4.21-7.225 7.357-10.178 7.357h-.056c.95-1.95 2.406-3.306 3.846-4.483zm-19.653.528c1.907-1.719 4.254-2.784 6.324-3.723l.088-.041c.28-.133.463-.203.623-.052.083.078.04.202-.084.444-1.787 3.47-6.589 7.37-10.255 7.403.774-1.568 1.886-2.753 3.304-4.03z" fill="#121212" fill-rule="evenodd"/></svg>